<svg width="33" height="28" viewBox="0 0 33 28" fill="none" xmlns="http://www.w3.org/2000/svg">
<path d="M0.69061 12.3527C-0.2302 13.2638 -0.2302 14.7435 0.69061 15.6546L12.477 27.3167C13.3978 28.2278 14.8932 28.2278 15.814 27.3167C16.7348 26.4056 16.7348 24.9259 15.814 24.0148L8.04236 16.3324L30.6427 16.3324C31.9466 16.3324 33 15.2901 33 14C33 12.7099 31.9466 11.6676 30.6427 11.6676L8.04973 11.6676L15.8066 3.98516C16.7274 3.07406 16.7274 1.59443 15.8066 0.683326C14.8858 -0.227776 13.3904 -0.227777 12.4696 0.683326L0.683243 12.3454L0.69061 12.3527Z" fill="white"/>
</svg>
