<svg width="19" height="18" viewBox="0 0 19 18" fill="none" xmlns="http://www.w3.org/2000/svg">
<path d="M0.5 0V18H18.5V0H0.5ZM10.2955 14.0384C10.2955 15.7902 9.26696 16.5897 7.7683 16.5897C6.41429 16.5897 5.6308 15.8906 5.22902 15.0429L6.60714 14.2112C6.87232 14.6813 7.11339 15.079 7.69598 15.079C8.25045 15.079 8.60402 14.8621 8.60402 14.0143V8.26473H10.2955V14.0384ZM14.2973 16.5897C12.7263 16.5897 11.7098 15.8424 11.2156 14.8621L12.5938 14.0665C12.9554 14.6571 13.4295 15.0951 14.2612 15.0951C14.9603 15.0951 15.4103 14.7455 15.4103 14.2594C15.4103 13.6808 14.9522 13.4759 14.1768 13.1344L13.7549 12.9536C12.5335 12.4353 11.7259 11.7804 11.7259 10.4022C11.7259 9.13259 12.6942 8.1683 14.2009 8.1683C15.2777 8.1683 16.0491 8.54196 16.6036 9.52232L15.2857 10.3661C14.9964 9.84777 14.683 9.64286 14.1969 9.64286C13.7027 9.64286 13.3893 9.95625 13.3893 10.3661C13.3893 10.8723 13.7027 11.0772 14.4299 11.3946L14.8518 11.5754C16.2902 12.1902 17.0978 12.821 17.0978 14.2353C17.0978 15.754 15.9004 16.5897 14.2973 16.5897Z" fill="white"/>
</svg>
