<svg width="31" height="31" viewBox="0 0 31 31" fill="none" xmlns="http://www.w3.org/2000/svg">
<path d="M24.5417 0H6.45833C2.89204 0 0 2.89204 0 6.45833V24.5417C0 28.108 2.89204 31 6.45833 31H24.5417C28.1092 31 31 28.108 31 24.5417V6.45833C31 2.89204 28.1092 0 24.5417 0ZM10.3333 24.5417H6.45833V10.3333H10.3333V24.5417ZM8.39583 8.6955C7.14808 8.6955 6.13542 7.67508 6.13542 6.417C6.13542 5.15892 7.14808 4.1385 8.39583 4.1385C9.64358 4.1385 10.6562 5.15892 10.6562 6.417C10.6562 7.67508 9.64487 8.6955 8.39583 8.6955ZM25.8333 24.5417H21.9583V17.3032C21.9583 12.9528 16.7917 13.2822 16.7917 17.3032V24.5417H12.9167V10.3333H16.7917V12.6131C18.5948 9.27288 25.8333 9.02617 25.8333 15.8113V24.5417Z" fill="white"/>
</svg>
