<svg width="31" height="32" viewBox="0 0 31 32" fill="none" xmlns="http://www.w3.org/2000/svg">
<path d="M24.5417 0H6.45833C2.89204 0 0 2.98533 0 6.66667V25.3333C0 29.0147 2.89204 32 6.45833 32H24.5417C28.1092 32 31 29.0147 31 25.3333V6.66667C31 2.98533 28.1092 0 24.5417 0ZM18.7731 26.12C18.25 26.224 18.0833 25.892 18.0833 25.608V22.6813C18.0833 21.6853 17.7449 21.0373 17.3729 20.7067C19.6747 20.4427 22.0927 19.54 22.0927 15.444C22.0927 14.2787 21.6897 13.3267 21.0296 12.5813C21.1355 12.312 21.4895 11.2267 20.9276 9.75867C20.9276 9.75867 20.0609 9.472 18.0885 10.852C17.2618 10.612 16.3783 10.496 15.5 10.4907C14.6217 10.4947 13.7382 10.612 12.9128 10.8493C10.9391 9.46933 10.0711 9.756 10.0711 9.756C9.51054 11.2253 9.86446 12.3093 9.97167 12.58C9.31033 13.3267 8.90733 14.2773 8.90733 15.4427C8.90733 19.528 11.3189 20.444 13.6155 20.7147C13.3197 20.9813 13.0523 21.4507 12.9593 22.1413C12.369 22.4133 10.8745 22.884 9.95229 21.2533C9.95229 21.2533 9.40592 20.2293 8.36742 20.1533C8.36742 20.1533 7.35992 20.14 8.29637 20.8027C8.29637 20.8027 8.9745 21.1307 9.44467 22.3627C9.44467 22.3627 10.0427 24.2667 12.9167 23.6213V25.6067C12.9167 25.888 12.75 26.2187 12.2347 26.12C8.12717 24.7107 5.16667 20.712 5.16667 16C5.16667 10.108 9.79342 5.33333 15.5 5.33333C21.2066 5.33333 25.8333 10.108 25.8333 16C25.8333 20.7107 22.8767 24.708 18.7731 26.12Z" fill="white"/>
</svg>
