<svg width="39" height="50" viewBox="0 0 39 50" fill="none" xmlns="http://www.w3.org/2000/svg">
<path d="M17.5041 21.0623H6.88415V20.3421C6.88527 19.3393 7.28415 18.3772 7.99345 17.668C8.70272 16.9587 9.66465 16.5598 10.6674 16.5586H13.7249C14.7273 16.5601 15.6881 16.9598 16.3967 17.669C17.1052 18.3784 17.5033 19.3396 17.5037 20.3421L17.5041 21.0623ZM12.1943 14.9462C12.7915 14.9462 13.3643 14.7088 13.7864 14.2867C14.2089 13.8642 14.4458 13.2914 14.4458 12.6941C14.4458 12.0969 14.2089 11.5241 13.7864 11.1019C13.3643 10.6794 12.7915 10.4421 12.1943 10.4421C11.5971 10.4421 11.0243 10.6794 10.6018 11.1019C10.1797 11.5241 9.94238 12.0969 9.94238 12.6941C9.94313 13.2913 10.1804 13.8635 10.6025 14.286C11.0246 14.7081 11.5971 14.9454 12.1943 14.9462ZM0.806638 0.000163286H38.1788C38.6238 0.000163286 38.9848 0.360814 38.9848 0.80619C38.9848 44.2938 39.0781 41.6459 38.8022 41.9866C38.7216 42.0856 32.2197 49.6911 32.1027 49.7898C31.7522 50.0852 33.657 49.9828 0.806359 49.9828C0.361006 49.9828 0 49.6222 0 49.1768V0.806027C0 0.36065 0.361006 0 0.806359 0L0.806638 0.000163286ZM32.9072 39.0999C33.3522 39.0999 33.7132 38.7389 33.7132 38.2939C33.7132 37.8485 33.3522 37.4875 32.9072 37.4875H12.2701C11.8251 37.4875 11.4641 37.8485 11.4641 38.2939C11.4641 38.7389 11.8251 39.0999 12.2701 39.0999H32.9072ZM12.2701 33.9885H32.9072C33.3522 33.9885 33.7132 33.6279 33.7132 33.1825C33.7132 32.7371 33.3522 32.3765 32.9072 32.3765H12.2701C11.8251 32.3765 11.4641 32.7371 11.4641 33.1825C11.4641 33.6279 11.8251 33.9885 12.2701 33.9885ZM12.2701 28.8771H32.9072V28.8775C33.3522 28.8775 33.7132 28.5165 33.7132 28.0715C33.7132 27.6261 33.3522 27.2651 32.9072 27.2651H12.2701C11.8251 27.2651 11.4641 27.6261 11.4641 28.0715C11.4641 28.5165 11.8251 28.8775 12.2701 28.8775V28.8771ZM36.4264 42.2866H32.3908V46.9968L36.4264 42.2866ZM22.2441 10.4425H29.3545C29.7995 10.4425 30.1605 10.0818 30.1605 9.63647C30.1605 9.1911 29.7995 8.83044 29.3545 8.83044H22.2441C21.7988 8.83044 21.4382 9.1911 21.4382 9.63647C21.4382 10.0818 21.7988 10.4425 22.2441 10.4425ZM22.2441 16.0266L32.9072 16.027C33.3522 16.027 33.7132 15.666 33.7132 15.2206C33.7132 14.7756 33.3522 14.4146 32.9072 14.4146H22.2441C21.7988 14.4146 21.4382 14.7756 21.4382 15.2206C21.4382 15.666 21.7988 16.027 22.2441 16.027V16.0266ZM22.2441 21.6055H32.9072C33.3522 21.6055 33.7132 21.2448 33.7132 20.7995C33.7132 20.3541 33.3522 19.9934 32.9072 19.9934H22.2441C21.7988 19.9934 21.4382 20.3541 21.4382 20.7995C21.4382 21.2448 21.7988 21.6055 22.2441 21.6055ZM5.27207 21.8687V21.8691C5.27207 22.3141 5.63307 22.6751 6.07805 22.6751H18.3102C18.7556 22.6751 19.1162 22.3141 19.1162 21.8691V20.3425C19.1147 19.166 18.729 18.0222 18.0175 17.085C17.3063 16.1478 16.3084 15.4688 15.1755 15.151C15.8001 14.3933 16.1127 13.4264 16.0498 12.4464C15.9872 11.4668 15.5534 10.5476 14.8374 9.87578C14.1214 9.20434 13.1763 8.83053 12.1945 8.83053C11.213 8.83053 10.268 9.2043 9.55201 9.87578C8.83599 10.5476 8.4023 11.4668 8.33963 12.4464C8.27665 13.4264 8.5893 14.3933 9.21385 15.151C8.08094 15.4689 7.08305 16.1479 6.37154 17.085C5.66002 18.0223 5.27424 19.1661 5.27241 20.3425L5.27207 21.8687ZM6.07805 28.877H8.14176V28.8774C8.58712 28.8774 8.94812 28.5163 8.94812 28.0713C8.94812 27.6259 8.58712 27.2649 8.14176 27.2649H6.07805C5.63307 27.2649 5.27207 27.6259 5.27207 28.0713C5.27207 28.5163 5.63307 28.8774 6.07805 28.8774V28.877ZM6.07805 33.9883H8.14176C8.58712 33.9883 8.94812 33.6277 8.94812 33.1823C8.94812 32.7369 8.58712 32.3763 8.14176 32.3763H6.07805C5.63307 32.3763 5.27207 32.7369 5.27207 33.1823C5.27207 33.6277 5.63307 33.9883 6.07805 33.9883ZM6.07805 39.0997H8.14176C8.58712 39.0997 8.94812 38.7387 8.94812 38.2937C8.94812 37.8483 8.58712 37.4873 8.14176 37.4873H6.07805C5.63307 37.4873 5.27207 37.8483 5.27207 38.2937C5.27207 38.7387 5.63307 39.0997 6.07805 39.0997Z" fill="white"/>
</svg>
