<svg width="31" height="31" viewBox="0 0 31 31" fill="none" xmlns="http://www.w3.org/2000/svg">
<path d="M19.676 7.08867C18.5871 7.03958 18.259 7.02925 15.5 7.02925C12.741 7.02925 12.4142 7.03958 11.3253 7.08867C8.52242 7.21654 7.21654 8.54438 7.08996 11.324C7.03958 12.4142 7.02796 12.741 7.02796 15.5C7.02796 18.259 7.03958 18.5858 7.08867 19.676C7.21654 22.4505 8.51725 23.7835 11.324 23.9113C12.4129 23.9604 12.741 23.972 15.5 23.972C18.2603 23.972 18.5871 23.9617 19.676 23.9126C22.4789 23.7847 23.7835 22.4543 23.9113 19.6772C23.9604 18.5871 23.9707 18.2603 23.9707 15.5013C23.9707 12.7423 23.9604 12.4155 23.9113 11.3266C23.7835 8.54567 22.4763 7.21654 19.676 7.08867ZM15.5 20.8062C12.5692 20.8062 10.1938 18.4308 10.1938 15.5C10.1938 12.5692 12.5705 10.1938 15.5 10.1938C18.4295 10.1938 20.8062 12.5692 20.8062 15.5C20.8062 18.4308 18.4308 20.8062 15.5 20.8062ZM21.0167 11.2246C20.3321 11.2246 19.7767 10.6692 19.7767 9.98458C19.7767 9.3 20.3321 8.74458 21.0167 8.74458C21.7013 8.74458 22.2567 9.3 22.2567 9.98458C22.2567 10.6692 21.7013 11.2246 21.0167 11.2246ZM18.9449 15.5C18.9449 17.4026 17.4026 18.9449 15.5 18.9449C13.5974 18.9449 12.0551 17.4026 12.0551 15.5C12.0551 13.5974 13.5974 12.0551 15.5 12.0551C17.4026 12.0551 18.9449 13.5974 18.9449 15.5ZM24.5417 0H6.45833C2.89204 0 0 2.89204 0 6.45833V24.5417C0 28.108 2.89204 31 6.45833 31H24.5417C28.1092 31 31 28.108 31 24.5417V6.45833C31 2.89204 28.1092 0 24.5417 0ZM25.7713 19.7599C25.6008 23.5174 23.5096 25.5995 19.7612 25.7713C18.6581 25.8217 18.3068 25.8333 15.5 25.8333C12.6932 25.8333 12.3432 25.8217 11.2401 25.7713C7.48392 25.5995 5.40175 23.5135 5.22867 19.7599C5.17829 18.6581 5.16667 18.3068 5.16667 15.5C5.16667 12.6945 5.17829 12.3419 5.22867 11.2401C5.40175 7.48392 7.4865 5.40046 11.2401 5.22996C12.3432 5.17829 12.6932 5.16667 15.5 5.16667C18.3068 5.16667 18.6581 5.17829 19.7612 5.22867C23.5174 5.40046 25.6034 7.49038 25.7713 11.2388C25.8217 12.3419 25.8333 12.6945 25.8333 15.5C25.8333 18.3068 25.8217 18.6581 25.7713 19.7599Z" fill="white"/>
</svg>
