<svg width="26" height="19" viewBox="0 0 26 19" fill="none" xmlns="http://www.w3.org/2000/svg">
<path d="M12.2906 14.3642C12.2672 14.407 12.2789 14.388 12.2906 14.3642V14.3642ZM22.0224 10.9208C21.2367 10.9205 20.4615 11.1033 19.7567 11.4551C19.5263 10.9841 19.288 10.5725 19.2489 10.2637C19.202 9.90357 19.1512 9.68983 19.2059 9.26237C19.2606 8.8349 19.5067 8.22933 19.5028 8.18579C19.4989 8.14225 19.4481 7.92456 18.9442 7.9206C18.4403 7.91665 18.0067 8.01955 17.9563 8.15413C17.8673 8.40006 17.7981 8.65287 17.7493 8.91011C17.6594 9.37319 16.7418 11.0276 16.2223 11.8905C16.0504 11.5541 15.9059 11.2572 15.8746 11.0197C15.8278 10.6595 15.777 10.4458 15.8317 10.0183C15.8864 9.59088 16.1325 8.98531 16.1286 8.94177C16.1247 8.89823 16.0739 8.68054 15.5703 8.67658C15.0668 8.67263 14.6328 8.77553 14.5821 8.91011C14.5313 9.04468 14.4766 9.36132 14.375 9.66609C14.2735 9.97085 13.0512 12.7256 12.7313 13.442C12.5672 13.8062 12.4266 14.0991 12.325 14.297C12.3094 14.3286 12.2977 14.3484 12.2898 14.3642C12.3016 14.3445 12.3094 14.3247 12.3094 14.3326C12.2234 14.5028 12.1727 14.5978 12.1727 14.5978V14.6017C12.1062 14.7284 12.032 14.8432 11.9969 14.8432C11.9734 14.8432 11.9226 14.5107 12.0086 14.0555C12.1922 13.0977 12.6258 11.6095 12.6219 11.558C12.618 11.5303 12.7039 11.273 12.3367 11.1345C11.9812 11.0039 11.8523 11.2216 11.8211 11.2216C11.7898 11.2216 11.7664 11.3007 11.7664 11.3007C11.7664 11.3007 12.1609 9.62255 11.009 9.62255C10.2902 9.62255 9.2902 10.4221 8.79879 11.1464C8.49019 11.3166 7.82221 11.6847 7.11908 12.0765C6.84954 12.2269 6.5722 12.3813 6.31047 12.5277C6.29094 12.5079 6.27532 12.4881 6.25579 12.4684C4.85772 10.9564 2.27644 9.88773 2.38582 7.85728C2.42488 7.11713 2.67879 5.17374 7.34955 2.81477C11.1777 0.88326 14.2383 1.41363 14.7653 2.59312C15.5231 4.27528 13.1289 7.40606 9.15348 7.85728C7.63822 8.02747 6.84173 7.43377 6.64251 7.21212C6.43548 6.9786 6.40423 6.96672 6.3261 7.01026C6.19719 7.0815 6.27922 7.28732 6.3261 7.41002C6.44329 7.7227 6.93158 8.27682 7.76323 8.55388C8.4937 8.79532 10.2703 8.9299 12.4184 8.08684C14.8317 7.14483 16.7102 4.52067 16.1594 2.32398C15.5985 0.0916579 11.9453 -0.640574 8.49097 0.602241C6.43274 1.34239 4.20694 2.50604 2.60574 4.02196C0.703769 5.82682 0.399469 7.39815 0.52447 8.05518C0.969398 10.3864 4.14053 11.9063 5.40968 13.0304C5.34718 13.066 5.28859 13.0977 5.2339 13.1293C4.59756 13.4499 2.17996 14.7323 1.57487 16.086C0.891272 17.6217 1.68816 18.722 2.21121 18.8724C3.84365 19.3315 5.51515 18.5043 6.41321 17.1467C7.31127 15.7891 7.20228 14.0159 6.78821 13.2085C6.78431 13.1966 6.7765 13.1887 6.77259 13.1768C6.93665 13.0779 7.10463 12.9789 7.2726 12.88C7.59643 12.686 7.91284 12.5079 8.19018 12.3536C8.03393 12.781 7.92065 13.2956 7.86206 14.0397C7.79174 14.9104 8.14722 16.0385 8.60816 16.4818C8.81129 16.6757 9.05699 16.6797 9.20934 16.6797C9.74841 16.6797 9.9906 16.2285 10.2597 15.6902C10.5918 15.0331 10.8847 14.2693 10.8847 14.2693C10.8847 14.2693 10.5176 16.3353 11.5215 16.3353C11.8883 16.3353 12.2555 15.8564 12.4199 15.611V15.615C12.4199 15.615 12.4277 15.5991 12.4473 15.5675C12.4863 15.5081 12.5059 15.4725 12.5059 15.4725V15.4606C12.6543 15.2033 12.9785 14.6136 13.4664 13.6399C14.0992 12.3813 14.7043 10.81 14.7043 10.81C14.7628 11.1554 14.8437 11.4965 14.9465 11.8311C15.0559 12.2071 15.2864 12.6188 15.47 13.0185C15.3215 13.2243 15.2317 13.3431 15.2317 13.3431C15.232 13.3461 15.2334 13.3489 15.2356 13.351C15.1184 13.5093 14.9856 13.6795 14.8489 13.8457C14.3492 14.4474 13.7551 15.1361 13.677 15.334C13.5832 15.5675 13.6067 15.7416 13.7863 15.8762C13.9192 15.9791 14.1535 15.9949 14.3992 15.9752C14.8485 15.9435 15.1649 15.8327 15.3172 15.7614C15.5981 15.6594 15.8635 15.5182 16.1059 15.3419C16.5942 14.9777 16.8911 14.4553 16.8637 13.7666C16.8481 13.3866 16.727 13.0066 16.5786 12.6504C16.6215 12.5871 16.6684 12.5198 16.7114 12.4525C17.4844 11.3087 18.0821 10.0532 18.0821 10.0532C18.1406 10.3986 18.2215 10.7397 18.3243 11.0743C18.418 11.3949 18.6012 11.7472 18.7692 12.0916C18.043 12.6892 17.5938 13.3819 17.4376 13.837C17.1485 14.6801 17.3751 15.0601 17.8008 15.1471C17.9923 15.1867 18.2657 15.0957 18.4688 15.0086C18.7705 14.9068 19.0549 14.7586 19.3122 14.5693C19.8005 14.2051 20.2727 13.6945 20.2415 13.0019C20.2298 12.6892 20.1438 12.3765 20.0306 12.0757C20.6438 11.8145 21.4403 11.672 22.456 11.7907C24.631 12.048 25.0568 13.4254 24.9748 13.9993C24.8927 14.5732 24.4357 14.8938 24.2833 14.9888C24.131 15.0838 24.0841 15.1194 24.0958 15.1907C24.1154 15.2936 24.1857 15.2896 24.3146 15.2659C24.4943 15.2342 25.4548 14.7988 25.4978 13.7341C25.5603 12.3884 24.2833 10.9081 22.0212 10.92L22.0224 10.9208ZM5.25734 16.648C4.53897 17.4436 3.53115 17.7444 3.09794 17.4911C2.63309 17.2172 2.81668 16.0464 3.70302 15.1986C4.24209 14.6841 4.93702 14.2091 5.39796 13.9162C5.50343 13.8529 5.65578 13.7579 5.84328 13.6431C5.87453 13.6233 5.89016 13.6154 5.89016 13.6154C5.92531 13.5916 5.96438 13.5718 6.00344 13.5481C6.32727 14.7513 6.01516 15.8121 5.25734 16.6472V16.648ZM10.5058 13.0304C10.2558 13.6518 9.72887 15.235 9.40856 15.1519C9.13512 15.0806 8.96715 13.8735 9.35387 12.686C9.54918 12.0884 9.96325 11.3759 10.2093 11.0989C10.6035 10.6516 11.0371 10.5091 11.1387 10.6873C11.2754 10.9208 10.6621 12.6425 10.5058 13.0304ZM14.8418 15.1281C14.7364 15.1836 14.6387 15.2192 14.5918 15.1915C14.5567 15.1717 14.6348 15.0965 14.6348 15.0965C14.6348 15.0965 15.1778 14.5067 15.3926 14.2376C15.5176 14.0793 15.6621 13.8932 15.818 13.6874C15.818 13.7072 15.8219 13.727 15.8219 13.7508C15.8168 14.4592 15.1453 14.9382 14.8407 15.1281H14.8418ZM18.1848 14.3563C18.1067 14.3009 18.1184 14.1149 18.3801 13.537C18.4817 13.3114 18.7157 12.9314 19.1223 12.5673C19.1684 12.7051 19.1934 12.8493 19.1966 12.9948C19.1927 13.8853 18.5637 14.2178 18.1852 14.3563H18.1848Z" fill="white"/>
</svg>
