<svg width="31" height="32" viewBox="0 0 31 32" fill="none" xmlns="http://www.w3.org/2000/svg">
<path d="M24.5417 0H6.45833C2.89204 0 0 2.98533 0 6.66667V25.3333C0 29.0147 2.89204 32 6.45833 32H24.5417C28.1092 32 31 29.0147 31 25.3333V6.66667C31 2.98533 28.1092 0 24.5417 0ZM24.3621 12.316C24.6321 18.472 20.1849 25.336 12.3109 25.336C9.91612 25.336 7.688 24.612 5.81121 23.3693C8.06129 23.6427 10.3062 22.9987 12.0887 21.5573C10.2326 21.5213 8.66708 20.256 8.12846 18.5173C8.79367 18.648 9.44725 18.6093 10.0427 18.4427C8.00317 18.02 6.59654 16.124 6.64175 14.096C7.21267 14.424 7.86754 14.6213 8.56117 14.644C6.67404 13.3413 6.13929 10.768 7.24883 8.8C9.34004 11.448 12.4646 13.1907 15.9882 13.3733C15.3695 10.636 17.3832 8 20.1203 8C21.3383 8 22.4414 8.53067 23.2138 9.38267C24.18 9.18667 25.088 8.82267 25.9082 8.32133C25.5905 9.344 24.9188 10.2013 24.0444 10.7427C24.902 10.636 25.7197 10.4013 26.4792 10.0533C25.9121 10.928 25.1927 11.6987 24.3621 12.316Z" fill="white"/>
</svg>
